General
Complete name                    : Every Which Way But Loose.mkv
Format                           : Matroska
File size                        : 2.08 GiB
Duration                         : 1h 49mn
Overall bit rate                 : 2 712 Kbps


Video
ID                               : 1
Format                           : AVC
Duration                         : 1h 49mn
Bit rate                         : 1 890 Kbps
Width                            : 720 pixels
Height                           : 576 pixels
Display aspect ratio             : 16:9
Frame rate                       : 25.000 fps
Standard                         : PAL
Resolution                       : 8 bits
Colorimetry                      : 4:2:0
Scan type                        : Progressive
Bits/(Pixel*Frame)               : 0.182
Stream size                      : 1.45 GiB (70%)
Writing library                  : x264 core 79


Audio #1
ID                               : 2
Format                           : AC-3
Format/Info                      : Audio Coding 3
Codec ID                         : A_AC3
Duration                         : 1h 49mn
Bit rate mode                    : Constant
Bit rate                         : 384 Kbps
Channel(s)                       : 6 channels
Channel positions                : Front: L C R, Surround: L R, LFE
Sampling rate                    : 48.0 KHz
Stream size                      : 302 MiB (14%)
Language                         : English

Audio #2
ID                               : 3
Format                           : AC-3
Format/Info                      : Audio Coding 3
Codec ID                         : A_AC3
Duration                         : 1h 49mn
Bit rate mode                    : Constant
Bit rate                         : 192 Kbps
Channel(s)                       : 1 channel
Channel positions                : C
Sampling rate                    : 48.0 KHz
Stream size                      : 151 MiB (7%)
Language                         : German

Audio #3
ID                               : 4
Format                           : AC-3
Format/Info                      : Audio Coding 3
Codec ID                         : A_AC3
Duration                         : 1h 49mn
Bit rate mode                    : Constant
Bit rate                         : 192 Kbps
Channel(s)                       : 1 channel
Channel positions                : C
Sampling rate                    : 48.0 KHz
Stream size                      : 151 MiB (7%)
Language                         : Spanish

Text #1
Language                         : English

Text #2
Language                         : Croatian

Text #3
Language                         : Czech

Text #4
Language                         : Danish

Text #5
Language                         : Finnish

Text #6
Language                         : German

Text #7
Language                         : Greek

Text #8
Language                         : ???xxxx????

Text #9
Language                         : Hungarian

Text #10
Language                         : Norwegian

Text #11
Language                         : Polish

Text #12
Language                         : Portuguese

Text #13
Language                         : Slovenian

Text #14
Language                         : Spanish

Text #15
Language                         : Swedish

Text #16
Language                         : Turkish

Text #17
Language                         : English



